<svg width="225" height="97" viewBox="0 0 225 97" fill="none" xmlns="http://www.w3.org/2000/svg">
<path d="M75.0721 0H68.0416V59.169H75.0721V0Z" fill="white"/>
<path d="M214.753 0L198.825 41.8898L183.443 0H172.429V59.169H179.459V8.68429L195.236 52.1972H201.95L217.572 9.70813V59.169H224.602V0H214.753Z" fill="white"/>
<path d="M7.75466 21.8255C4.19938 23.7655 1.50497 26.2723 1 26.7598L5.57826 32.4112C6.12236 31.8912 6.87329 31.2492 7.75466 30.5911V59.169H14.7814V40.5328V31.3305V27.095C15.4093 26.9955 16.0075 26.9792 16.5478 27.0991C17.9155 27.4119 19.1435 28.1452 20.5615 28.9923C24.1652 31.1436 29.1031 34.0871 37.4043 28.9537L33.9925 22.3943C29.0397 25.4577 27.1019 24.2998 23.882 22.372C22.2143 21.3786 20.3286 20.2512 17.9491 19.7189C16.8981 19.4772 15.8379 19.4366 14.7795 19.5138V16.2838V6.984H42.5062L44.5317 0H7.75466V21.8255Z" fill="white"/>
<path d="M145.473 51.7848C144.18 52.7335 143.398 53.3084 140.93 50.6229C137.863 47.3056 132.778 39.4176 129.616 34.3431C134.094 33.9612 137.601 32.3036 140.137 29.3255C142.758 26.2357 144.074 22.1668 144.074 17.1066C144.074 14.547 143.686 12.2535 142.893 10.2099C142.125 8.16023 141.04 6.42134 139.661 4.97294C138.288 3.52048 136.63 2.41336 134.703 1.65158C132.778 0.885734 130.665 0.505859 128.383 0.505859H103.701V59.683H110.725V34.4833H113.45H116.968H121.373C123.264 37.6076 131.377 50.9134 136.054 55.9797C138.994 59.169 141.652 60.1421 143.835 60.1421C146.474 60.1421 148.423 58.7099 149.342 58.0396C149.472 57.9441 149.578 57.8567 149.679 57.7938L146.12 51.3298C145.919 51.4517 145.701 51.6142 145.473 51.7848ZM110.725 27.5907V7.48986H128.062C130.98 7.48986 133.205 8.27398 134.744 9.83411C136.276 11.3963 137.04 13.8197 137.04 17.1106C137.04 20.69 136.235 23.3247 134.627 25.025C133.006 26.7314 130.511 27.5887 127.123 27.5887H110.725V27.5907Z" fill="white"/>
<path d="M87.7714 94.2311H86.1019V81.6018H87.4584L91.2801 87.7367L95.1037 81.6018H96.4267V94.2311H94.772V85.3376L91.7441 90.2434H90.8012L87.7733 85.3376V94.2311H87.7714Z" fill="white"/>
<path d="M100.118 92.409H105.496V94.2292H98.4298V81.6182H105.479V83.4403H100.118V86.9933H105.363V88.8337H100.118V92.409Z" fill="white"/>
<path d="M107.268 94.2311V81.6018H108.559L114.201 90.4974V81.6018H115.856V94.2311H114.533L108.939 85.4087V94.2311H107.268Z" fill="white"/>
<path d="M123.982 84.7952C123.751 83.6576 122.625 83.1518 121.616 83.1721C120.839 83.1904 119.978 83.4768 119.514 84.1452C119.281 84.4682 119.199 84.8826 119.232 85.3356C119.314 86.6519 120.622 86.8145 121.863 86.9404C123.453 87.1557 125.422 87.6087 125.868 89.6645C125.916 89.9367 125.95 90.2415 125.95 90.4954C125.95 92.9656 123.732 94.3916 121.647 94.3916C119.86 94.3916 117.691 93.2195 117.477 90.9464L117.46 90.5848L119.148 90.5482L119.165 90.8367V90.7473C119.281 91.9377 120.589 92.5674 121.664 92.5674C122.905 92.5674 124.263 91.7914 124.263 90.4751C124.263 90.3491 124.247 90.2049 124.213 90.0424C124.016 89.0693 122.823 88.9048 121.664 88.7809C119.86 88.5818 117.743 88.1471 117.561 85.4798V85.4981C117.494 84.6307 117.693 83.7836 118.189 83.0624C118.966 81.9431 120.356 81.3662 121.698 81.3662C123.484 81.3662 125.339 82.3941 125.635 84.7221L123.982 84.7952Z" fill="white"/>
<path d="M129.561 81.6018V94.2311H127.906V81.6018H129.561ZM129.876 87.4665L133.914 81.6018H135.982L131.564 87.8809L136.446 94.2311H134.296L129.876 88.3867V87.4665Z" fill="white"/>
</svg>
