<svg width="41" height="42" viewBox="0 0 41 42" fill="none" xmlns="http://www.w3.org/2000/svg">
<path d="M20.0417 15.5271C19.0586 15.5271 18.0977 15.8274 17.2803 16.39C16.4629 16.9527 15.8259 17.7524 15.4497 18.6881C15.0735 19.6238 14.9751 20.6534 15.1668 21.6467C15.3586 22.64 15.832 23.5524 16.5271 24.2685C17.2222 24.9846 18.1079 25.4723 19.072 25.6699C20.0362 25.8675 21.0355 25.7661 21.9437 25.3785C22.8519 24.991 23.6282 24.3346 24.1743 23.4925C24.7205 22.6505 25.012 21.6604 25.012 20.6477C25.012 19.9752 24.8834 19.3094 24.6337 18.6881C24.3839 18.0668 24.0178 17.5023 23.5562 17.0269C23.0947 16.5514 22.5468 16.1742 21.9437 15.9168C21.3407 15.6595 20.6944 15.5271 20.0417 15.5271ZM39.943 10.4684C39.9325 8.87388 39.6475 7.29394 39.1013 5.802C38.699 4.71027 38.0766 3.71884 37.2751 2.89312C36.4736 2.0674 35.5113 1.42617 34.4516 1.01174C33.0035 0.449012 31.4699 0.155396 29.9222 0.144534C27.3368 -1.53837e-07 26.5752 0 20.0417 0C13.5081 0 12.7465 -1.53837e-07 10.1611 0.144534C8.61342 0.155396 7.07986 0.449012 5.63171 1.01174C4.57203 1.42617 3.60969 2.0674 2.80821 2.89312C2.00673 3.71884 1.38431 4.71027 0.982042 5.802C0.435834 7.29394 0.150835 8.87388 0.140292 10.4684C-1.49322e-07 13.1319 0 13.9165 0 20.6477C0 27.3788 -1.49322e-07 28.1634 0.140292 30.827C0.161864 32.4271 0.446477 34.0119 0.982042 35.514C1.38253 36.6007 2.00442 37.5864 2.80583 38.4047C3.60388 39.2354 4.56828 39.8766 5.63171 40.2836C7.07986 40.8464 8.61342 41.14 10.1611 41.1508C12.7465 41.2954 13.5081 41.2954 20.0417 41.2954C26.5752 41.2954 27.3368 41.2954 29.9222 41.1508C31.4699 41.14 33.0035 40.8464 34.4516 40.2836C35.5151 39.8766 36.4795 39.2354 37.2775 38.4047C38.0789 37.5864 38.7008 36.6007 39.1013 35.514C39.647 34.0148 39.9319 32.4281 39.943 30.827C40.0833 28.1634 40.0833 27.3788 40.0833 20.6477C40.0833 13.9165 40.0833 13.1319 39.943 10.4684ZM34.8525 26.9865C34.7881 28.2607 34.5242 29.5158 34.0708 30.7031C33.6818 31.6935 33.1034 32.5933 32.37 33.3488C31.6366 34.1043 30.7633 34.7002 29.802 35.1011C28.6386 35.5421 27.4135 35.7861 26.1744 35.8237C24.5911 35.8237 24.1702 35.8237 20.0417 35.8237C15.9131 35.8237 15.4922 35.8237 13.9089 35.8237C12.6698 35.7861 11.4448 35.5421 10.2814 35.1011C9.28751 34.7206 8.39 34.1135 7.65592 33.3254C6.92974 32.5846 6.36893 31.6898 6.0125 30.7031C5.58272 29.5058 5.35234 28.2423 5.33108 26.9659C5.33108 25.3347 5.33108 24.9011 5.33108 20.6477C5.33108 16.3943 5.33108 15.9607 5.33108 14.3295C5.35234 13.0531 5.58272 11.7896 6.0125 10.5923C6.38183 9.56835 6.97104 8.64369 7.73608 7.88742C8.45825 7.14332 9.32592 6.56616 10.2814 6.1943C11.4448 5.75328 12.6698 5.50923 13.9089 5.47164C15.4922 5.47164 15.9131 5.47164 20.0417 5.47164C24.1702 5.47164 24.5911 5.47164 26.1744 5.47164C27.4135 5.50923 28.6386 5.75328 29.802 6.1943C30.7958 6.5748 31.6933 7.18183 32.4274 7.97001C33.1536 8.71074 33.7144 9.60558 34.0708 10.5923C34.4989 11.7908 34.7358 13.0529 34.7723 14.3295C34.7723 15.9607 34.7723 16.3943 34.7723 20.6477C34.7723 24.9011 34.9126 25.3347 34.8525 26.9659V26.9865ZM31.6458 11.6246C31.4072 10.9577 31.0309 10.352 30.5431 9.84939C30.0552 9.34676 29.4673 8.95916 28.8199 8.71332C27.931 8.39589 26.9948 8.24212 26.0542 8.25907C24.4909 8.25907 24.05 8.25907 20.0417 8.25907C16.0333 8.25907 15.5924 8.25907 14.0292 8.25907C13.0837 8.26859 12.1474 8.45034 11.2634 8.79591C10.6259 9.03059 10.0443 9.40236 9.55704 9.88653C9.06981 10.3707 8.68818 10.9562 8.43754 11.604C8.14649 12.5236 8.0043 13.4862 8.01667 14.4534C8.01667 16.0639 8.01667 16.5181 8.01667 20.6477C8.01667 24.7772 8.01667 25.2315 8.01667 26.842C8.03654 27.8149 8.21261 28.7777 8.53775 29.6914C8.77637 30.3583 9.1526 30.964 9.64047 31.4666C10.1283 31.9693 10.7162 32.3569 11.3636 32.6027C12.2187 32.9267 13.1186 33.1079 14.0292 33.1395C15.5924 33.1395 16.0333 33.1395 20.0417 33.1395C24.05 33.1395 24.4909 33.1395 26.0542 33.1395C26.9996 33.13 27.9359 32.9483 28.8199 32.6027C29.4673 32.3569 30.0552 31.9693 30.5431 31.4666C31.0309 30.964 31.4072 30.3583 31.6458 29.6914C31.9812 28.7807 32.1576 27.816 32.1669 26.842C32.1669 25.2315 32.1669 24.7772 32.1669 20.6477C32.1669 16.5181 32.1669 16.0639 32.1669 14.4534C32.1675 13.4784 31.9907 12.5119 31.6458 11.604V11.6246ZM20.0417 28.5351C19.0372 28.5351 18.0426 28.3309 17.1149 27.9343C16.1872 27.5377 15.3445 26.9564 14.6352 26.2237C13.9259 25.491 13.3638 24.6213 12.9813 23.6645C12.5987 22.7077 12.4032 21.6825 12.4058 20.6477C12.4058 19.0868 12.8553 17.5611 13.6975 16.2635C14.5396 14.966 15.7365 13.9551 17.1366 13.3587C18.5367 12.7623 20.077 12.6074 21.5627 12.9134C23.0483 13.2194 24.4125 13.9726 25.4823 15.0778C26.5522 16.1829 27.2798 17.5903 27.573 19.1216C27.8661 20.653 27.7116 22.2395 27.1291 23.6804C26.5466 25.1213 25.5622 26.3517 24.3005 27.2159C23.0389 28.0801 21.5567 28.5392 20.0417 28.5351ZM28.0583 14.3088C27.6153 14.2605 27.2053 14.045 26.9073 13.7038C26.6093 13.3626 26.4445 12.9199 26.4445 12.4609C26.4445 12.0019 26.6093 11.5592 26.9073 11.2179C27.2053 10.8767 27.6153 10.6612 28.0583 10.6129C28.5014 10.6612 28.9114 10.8767 29.2094 11.2179C29.5073 11.5592 29.6722 12.0019 29.6722 12.4609C29.6722 12.9199 29.5073 13.3626 29.2094 13.7038C28.9114 14.045 28.5014 14.2605 28.0583 14.3088Z" fill="black"/>
</svg>
