<svg width="41" height="42" viewBox="0 0 41 42" fill="none" xmlns="http://www.w3.org/2000/svg">
<path d="M26.1945 0H13.8889C2.65886 0 0 2.73926 0 14.3088V26.9865C0 38.5561 2.65886 41.2954 13.8889 41.2954H26.1945C37.4245 41.2954 40.0833 38.5561 40.0833 26.9865V14.3088C40.0833 2.73926 37.3961 0 26.1945 0ZM32.3606 29.4625H29.4479C28.3456 29.4625 28.0049 28.5592 26.0241 26.491C24.2988 24.7703 23.5356 24.538 23.1114 24.538C22.5168 24.538 22.3465 24.7136 22.3465 25.5584V28.2684C22.3465 28.9979 22.121 29.435 20.2538 29.435C17.1707 29.435 13.7469 27.5113 11.3436 23.9255C7.72272 18.681 6.73066 14.7459 6.73066 13.9303C6.73066 13.4933 6.90101 13.0855 7.72105 13.0855H10.6338C11.3686 13.0855 11.6526 13.4348 11.9365 14.2503C13.3778 18.5347 15.7828 22.2943 16.7732 22.2943C17.1406 22.2943 17.311 22.1188 17.311 21.1587V16.7263C17.1974 14.6857 16.1502 14.5119 16.1502 13.784C16.1502 13.433 16.4342 13.0837 16.8851 13.0837H21.468C22.0909 13.0837 22.3164 13.433 22.3164 14.1901V20.1659C22.3164 20.806 22.6003 21.04 22.769 21.04C23.1364 21.04 23.4487 20.806 24.1268 20.1074C26.2212 17.6882 27.7193 13.9578 27.7193 13.9578C27.918 13.5208 28.2571 13.113 28.9936 13.113H31.9063C32.7832 13.113 32.9819 13.5776 32.7832 14.2194C32.4157 15.9693 28.8516 21.1553 28.8516 21.1553C28.541 21.6801 28.4274 21.9124 28.8516 22.4974C29.1623 22.9344 30.1811 23.8377 30.8608 24.6533C32.1051 26.1107 33.0654 27.3341 33.3209 28.1806C33.6049 29.0238 33.179 29.4608 32.3589 29.4608L32.3606 29.4625Z" fill="black"/>
</svg>
